<?xml version="1.0" standalone="no"?>
<!DOCTYPE svg PUBLIC "-//W3C//DTD SVG 20010904//EN"
 "http://www.w3.org/TR/2001/REC-SVG-20010904/DTD/svg10.dtd">
<svg version="1.0" xmlns="http://www.w3.org/2000/svg"
 width="678.000000pt" height="368.000000pt" viewBox="0 0 678.000000 368.000000"
 preserveAspectRatio="xMidYMid meet">

<g transform="translate(0.000000,368.000000) scale(0.100000,-0.100000)"
fill="#000000" stroke="none">
<path d="M545 2541 c-87 -23 -160 -84 -195 -164 -27 -60 -30 -175 -7 -227 30
-68 108 -119 245 -159 96 -29 134 -62 136 -120 1 -36 -4 -47 -32 -72 -27 -25
-41 -29 -88 -29 -65 0 -116 23 -179 81 l-44 40 -33 -53 c-61 -94 -71 -116 -65
-130 9 -24 109 -85 178 -108 54 -19 80 -21 164 -18 147 7 232 53 290 159 28
50 30 62 30 154 0 91 -2 104 -28 147 -34 59 -80 87 -218 132 -109 37 -149 66
-149 109 0 34 26 64 67 77 46 16 126 0 178 -36 20 -13 40 -22 44 -19 4 2 23
39 41 81 l34 76 -25 19 c-48 37 -131 60 -224 64 -49 3 -103 1 -120 -4z"/>
<path d="M1117 2513 c-3 -5 -6 -213 -8 -463 l-4 -455 122 -3 123 -3 2 188 3
188 164 3 c110 2 168 -1 177 -9 11 -9 12 -45 7 -186 -5 -145 -4 -176 8 -184
23 -14 229 -11 234 4 2 6 6 216 10 465 l6 452 -125 0 -126 0 -2 -177 -3 -178
-170 0 -170 0 -3 183 -2 182 -120 0 c-65 0 -121 -3 -123 -7z"/>
<path d="M2485 2506 c-162 -52 -277 -165 -331 -326 -26 -78 -24 -224 4 -303
28 -77 102 -179 160 -222 202 -149 458 -135 634 33 111 105 153 213 146 376
-3 87 -8 110 -34 166 -64 134 -170 229 -303 270 -74 23 -213 26 -276 6z m251
-214 c66 -34 101 -69 133 -134 93 -185 -42 -398 -252 -399 -159 -1 -277 116
-277 275 0 132 76 237 200 277 43 14 152 4 196 -19z"/>
<path d="M2580 2181 c-45 -14 -71 -35 -91 -73 -52 -100 16 -218 125 -218 26 0
60 7 76 15 61 32 92 116 67 184 -23 65 -113 111 -177 92z m9 -75 c15 -18 3
-46 -19 -46 -10 0 -21 7 -24 16 -6 16 9 44 24 44 4 0 13 -6 19 -14z m96 -17
c0 -17 -6 -24 -20 -24 -23 0 -33 34 -13 46 20 13 33 5 33 -22z m-85 -94 c0
-33 -43 -48 -54 -19 -10 25 12 46 35 33 10 -5 19 -11 19 -14z m88 -7 c-2 -15
-11 -24 -25 -26 -19 -3 -23 1 -23 22 0 21 5 26 26 26 21 0 25 -4 22 -22z"/>
<path d="M3287 2219 c-4 -150 -7 -356 -7 -459 l0 -187 38 -7 c60 -10 354 -7
436 5 175 24 250 99 250 249 0 112 -48 188 -139 221 -43 16 -44 24 -2 45 71
36 107 94 107 172 0 94 -52 165 -151 204 -48 19 -79 22 -290 26 l-236 4 -6
-273z m380 85 c56 -9 90 -79 67 -139 -10 -25 -53 -42 -125 -50 -89 -9 -100 1
-98 98 2 100 7 107 72 101 28 -2 66 -7 84 -10z m60 -367 c36 -19 43 -34 43
-92 0 -43 -13 -65 -48 -84 -25 -13 -147 -24 -182 -16 l-30 7 0 97 c0 54 3 101
8 105 12 14 175 0 209 -17z"/>
<path d="M4175 2238 c-3 -134 -5 -342 -3 -463 l3 -220 120 0 120 0 3 175 c2
96 5 181 7 188 4 10 43 12 172 10 l168 -3 0 -185 1 -185 29 -6 c43 -9 203 -10
208 -1 3 4 8 212 12 463 l7 456 -101 7 c-55 4 -109 5 -119 2 -18 -6 -20 -22
-27 -179 -4 -94 -9 -175 -11 -179 -7 -11 -316 -10 -332 1 -11 6 -13 42 -12
162 1 85 2 164 1 177 -1 22 -4 22 -120 22 l-119 0 -7 -242z"/>
<path d="M5453 2463 c-12 -8 -71 -165 -228 -603 -36 -102 -77 -213 -90 -248
-18 -47 -21 -64 -11 -68 7 -3 61 -3 121 -2 l109 3 26 75 25 75 185 0 185 0 12
-40 c7 -22 17 -59 23 -82 l11 -43 119 0 c66 0 120 3 120 7 0 3 -68 213 -152
465 l-151 458 -81 0 c-45 0 -110 3 -146 6 -36 3 -71 1 -77 -3z m163 -190 c3
-16 29 -108 57 -206 43 -150 48 -180 36 -188 -8 -5 -23 -7 -34 -4 -11 2 -62 5
-114 5 l-93 0 6 32 c3 18 28 102 55 187 27 86 52 166 56 179 9 30 23 28 31 -5z"/>
<path d="M3857 1432 l-37 -3 2 -172 3 -172 47 -3 c72 -5 125 14 149 51 27 43
19 94 -18 124 -25 20 -26 23 -11 40 35 41 27 100 -16 121 -26 13 -69 18 -119
14z m108 -52 c27 -30 5 -77 -41 -86 -52 -10 -64 -1 -64 49 0 24 3 47 7 50 15
15 80 7 98 -13z m3 -136 c16 -11 22 -25 22 -54 0 -49 -30 -73 -87 -68 l-38 3
-3 54 c-2 29 -1 60 2 67 7 19 76 18 104 -2z"/>
<path d="M4153 1409 c-63 -40 -86 -174 -44 -257 28 -56 61 -76 123 -75 91 1
138 61 138 176 0 82 -20 131 -64 158 -41 25 -112 25 -153 -2z m128 -26 c38
-22 53 -71 46 -146 -7 -72 -30 -109 -80 -121 -83 -21 -136 76 -111 203 15 72
82 101 145 64z"/>
<path d="M4440 1286 c0 -74 4 -146 10 -160 12 -34 59 -56 116 -56 39 0 51 5
80 34 l34 34 2 106 c1 58 2 121 2 139 1 25 -3 33 -21 35 -21 3 -22 0 -25 -131
-3 -116 -6 -138 -22 -156 -29 -32 -88 -29 -115 5 -19 24 -21 40 -21 155 0 122
-1 129 -20 129 -19 0 -20 -7 -20 -134z"/>
<path d="M4735 1410 c-10 -16 -6 -17 48 -22 26 -3 50 -8 54 -12 4 -4 7 -73 8
-154 0 -127 2 -147 16 -150 24 -4 29 26 29 176 0 98 3 132 13 133 6 1 32 2 57
3 33 1 45 5 45 16 0 12 -23 15 -132 18 -87 2 -134 -1 -138 -8z"/>
<path d="M5067 1414 c-4 -4 -7 -83 -7 -176 0 -162 1 -168 20 -168 20 0 20 5
18 172 -3 161 -9 194 -31 172z"/>
<path d="M5253 1404 c-72 -36 -101 -186 -54 -270 26 -47 66 -74 109 -74 18 0
43 -11 61 -26 31 -26 79 -44 118 -44 16 0 23 6 23 20 0 15 -7 20 -30 20 -41 0
-80 20 -80 42 0 10 4 18 8 18 5 0 18 18 31 40 30 54 31 161 2 218 -33 66 -117
91 -188 56z m119 -35 c62 -33 63 -200 1 -249 -51 -40 -119 -19 -143 46 -24 63
-3 180 37 203 24 14 79 14 105 0z"/>
<path d="M5530 1264 l0 -146 28 -27 c34 -35 87 -46 137 -29 63 21 73 45 78
194 5 136 0 161 -27 151 -13 -5 -16 -26 -16 -126 0 -68 -5 -131 -11 -145 -26
-56 -118 -52 -138 6 -6 17 -11 84 -11 149 0 112 -1 119 -20 119 -19 0 -20 -7
-20 -146z"/>
<path d="M5857 1374 c-4 -22 -7 -100 -7 -175 l0 -137 96 -7 c66 -5 99 -4 107
4 19 19 -6 31 -77 35 -38 3 -72 9 -75 15 -4 6 -4 34 -1 63 l5 53 53 3 c36 2
52 7 52 17 0 10 -16 15 -52 17 l-53 3 -3 53 -3 52 75 0 c68 0 99 10 82 28 -4
3 -49 8 -100 10 l-93 4 -6 -38z"/>
</g>
</svg>
